<svg width="20" height="20" viewBox="0 0 45 66" fill="none" xmlns="http://www.w3.org/2000/svg">
<path d="M36.6567 41.1658C36.6567 41.1658 36.6571 41.1645 36.6582 41.1622C36.6573 41.1646 36.6568 41.1658 36.6567 41.1658ZM36.7695 40.5544H15.3633L15.5222 40.44L15.3227 38.9539L11.584 11.1108H41.8528L36.7695 40.5544Z" stroke="black" stroke-width="5"/>
<path d="M18.74 63.1192C18.7399 63.1196 18.7353 63.1183 18.7266 63.114C18.7358 63.1166 18.7401 63.1188 18.74 63.1192ZM18.9994 62.5101C18.8373 62.7927 18.7038 62.9475 18.6138 63.0302C18.5239 62.9475 18.3904 62.7927 18.2282 62.5101C17.8272 61.8109 17.5 60.6805 17.5 59.3006C17.5 57.9211 17.8272 56.7906 18.2283 56.0914C18.3904 55.8088 18.5239 55.6539 18.6138 55.5711C18.7038 55.6539 18.8373 55.8087 18.9993 56.0913C19.4004 56.7905 19.7275 57.921 19.7275 59.3006C19.7275 60.6806 19.4003 61.811 18.9994 62.5101ZM18.7401 55.482C18.7402 55.4824 18.7359 55.4846 18.7268 55.4873C18.7355 55.483 18.74 55.4816 18.7401 55.482ZM18.4876 55.482C18.4877 55.4816 18.4922 55.483 18.5009 55.4873C18.4918 55.4846 18.4874 55.4825 18.4876 55.482ZM18.5011 63.1139C18.4924 63.1183 18.4878 63.1196 18.4877 63.1192C18.4876 63.1188 18.4919 63.1166 18.5011 63.1139Z" stroke="black" stroke-width="5"/>
<path d="M31.74 63.1192C31.7399 63.1196 31.7353 63.1183 31.7266 63.114C31.7358 63.1166 31.7401 63.1188 31.74 63.1192ZM31.9994 62.5101C31.8373 62.7927 31.7038 62.9475 31.6138 63.0302C31.5239 62.9475 31.3904 62.7927 31.2282 62.5101C30.8272 61.8109 30.5 60.6805 30.5 59.3006C30.5 57.9211 30.8272 56.7906 31.2283 56.0914C31.3904 55.8088 31.5239 55.6539 31.6138 55.5711C31.7038 55.6539 31.8373 55.8087 31.9993 56.0913C32.4004 56.7905 32.7275 57.921 32.7275 59.3006C32.7275 60.6806 32.4003 61.811 31.9994 62.5101ZM31.7401 55.482C31.7402 55.4824 31.7359 55.4846 31.7268 55.4873C31.7355 55.483 31.74 55.4816 31.7401 55.482ZM31.4876 55.482C31.4877 55.4816 31.4922 55.483 31.5009 55.4873C31.4918 55.4846 31.4874 55.4825 31.4876 55.482ZM31.5011 63.1139C31.4924 63.1183 31.4878 63.1196 31.4877 63.1192C31.4876 63.1188 31.4919 63.1166 31.5011 63.1139Z" stroke="black" stroke-width="5"/>
</svg>
